# xmcd
#
# Track frame offsets: 
#        150
#        15452
#        32237
#        48100
#        62837
#        79410
#        94745
#        109482
#        125180
#        138477
#        154407
#        169780
#        185170
#        201075
#
# Disc length: 2912 seconds
#
# Revision: 0
# Processed by: cddbd v1.5.1PL2 Copyright (c) Steve Scherf et al.
# Submitted via: ExactAudioCopy v0.95b4
#
DISCID=cd0b5e0e
DTITLE=สุนารี  ราชสีมา - สุนารี ฮิตตลอดกาล
DYEAR=2001
DGENRE=Country
TTITLE0=รายงานหัวใจ
TTITLE1=ถึงเวลาจะบอกรัก
TTITLE2=แฟนฉันไม่ต้องหล่อ
TTITLE3=พูดกับภาพ
TTITLE4=ทีรัก..ฉันจน
TTITLE5=ห่วงรัก
TTITLE6=มือถือไมด์ไฟส่องหน้า
TTITLE7=เดือนกว่าไม่มาแฟลต
TTITLE8=ฉันไร้ค่าถ้าขาดเธอ
TTITLE9=แจกใจแจกรัก
TTITLE10=เลิกทั้งที่ยังรัก
TTITLE11=หลีกทางรัก
TTITLE12=อยู่บ้านนอกดีกว่า
TTITLE13=รักกันต้องให้เกียรติกัน
EXTD=
EXTT0=
EXTT1=
EXTT2=
EXTT3=
EXTT4=
EXTT5=
EXTT6=
EXTT7=
EXTT8=
EXTT9=
EXTT10=
EXTT11=
EXTT12=
EXTT13=
PLAYORDER=
